<svg id="Layer_1" data-name="Layer 1" xmlns="http://www.w3.org/2000/svg" viewBox="0 0 331.82 34"><defs><style>.cls-1,.cls-3{isolation:isolate;}.cls-2{fill:#72685c;}.cls-3{fill:none;stroke:#72685c;opacity:0.58;}</style></defs><title>Byline</title><g id="Group_258" data-name="Group 258"><g id="Coded_by_Jose" data-name="Coded by Jose" class="cls-1"><g class="cls-1"><path class="cls-2" d="M10.32,19.11a2.84,2.84,0,0,1-.25,1.11,4,4,0,0,1-.8,1.17,4.09,4.09,0,0,1-1.38.93,5,5,0,0,1-2,.36,6.68,6.68,0,0,1-1.54-.16A4.26,4.26,0,0,1,3.12,22a4.41,4.41,0,0,1-1.05-.9A5.19,5.19,0,0,1,1.35,20,5.87,5.87,0,0,1,.9,18.65a7.2,7.2,0,0,1-.15-1.5,6.78,6.78,0,0,1,.37-2.33A5.27,5.27,0,0,1,2.2,13.07,4.62,4.62,0,0,1,3.85,12a5.42,5.42,0,0,1,2-.38,5,5,0,0,1,2.32.52,4.2,4.2,0,0,1,1.56,1.28,2.59,2.59,0,0,1,.54,1.45,1,1,0,0,1-.26.66.85.85,0,0,1-.64.29.9.9,0,0,1-.63-.2,2.7,2.7,0,0,1-.46-.68,3.39,3.39,0,0,0-1-1.2,2.47,2.47,0,0,0-1.42-.39,2.56,2.56,0,0,0-2.13,1A4.58,4.58,0,0,0,3,17.22,5.44,5.44,0,0,0,3.3,19.3a2.62,2.62,0,0,0,1,1.24A2.69,2.69,0,0,0,5.81,21a2.63,2.63,0,0,0,1.58-.46,2.78,2.78,0,0,0,1-1.37,2.23,2.23,0,0,1,.35-.69.76.76,0,0,1,.66-.27,1,1,0,0,1,.94.95Z"/><path class="cls-2" d="M19.62,18.62a4.69,4.69,0,0,1-.28,1.65,3.56,3.56,0,0,1-.8,1.29,3.51,3.51,0,0,1-1.26.83,4.33,4.33,0,0,1-1.65.29A4.39,4.39,0,0,1,14,22.39a3.53,3.53,0,0,1-1.26-.84,3.72,3.72,0,0,1-.81-1.29,5.12,5.12,0,0,1,0-3.31,3.44,3.44,0,0,1,.8-1.28A3.34,3.34,0,0,1,14,14.84a4.46,4.46,0,0,1,1.63-.29,4.37,4.37,0,0,1,1.65.3,3.51,3.51,0,0,1,1.26.83A3.58,3.58,0,0,1,19.35,17,4.84,4.84,0,0,1,19.62,18.62Zm-2,0a3,3,0,0,0-.53-1.91A1.76,1.76,0,0,0,15.63,16a1.72,1.72,0,0,0-1,.31,1.9,1.9,0,0,0-.69.89,3.71,3.71,0,0,0-.24,1.39A3.61,3.61,0,0,0,13.91,20a1.82,1.82,0,0,0,.68.89,1.86,1.86,0,0,0,2.49-.37A3,3,0,0,0,17.61,18.62Z"/><path class="cls-2" d="M26.67,21.54v-.2a4.55,4.55,0,0,1-.79.75,2.87,2.87,0,0,1-.85.44,3.22,3.22,0,0,1-1,.15,3,3,0,0,1-1.33-.3,3,3,0,0,1-1.06-.87A4,4,0,0,1,21,20.19a5.82,5.82,0,0,1-.23-1.65,4.32,4.32,0,0,1,.92-2.93,3.06,3.06,0,0,1,2.41-1,3.36,3.36,0,0,1,1.46.29,4.12,4.12,0,0,1,1.15.92v-3a1.52,1.52,0,0,1,.25-.93.83.83,0,0,1,.7-.31.88.88,0,0,1,.7.29,1.31,1.31,0,0,1,.24.85v8.82a1.21,1.21,0,0,1-.26.86.88.88,0,0,1-.68.28.91.91,0,0,1-.68-.29A1.22,1.22,0,0,1,26.67,21.54ZM22.74,18.6A3.56,3.56,0,0,0,23,20a1.89,1.89,0,0,0,.7.86,1.76,1.76,0,0,0,1.92,0A1.83,1.83,0,0,0,26.3,20a3.31,3.31,0,0,0,.26-1.42,3.19,3.19,0,0,0-.26-1.37,2,2,0,0,0-.7-.88,1.68,1.68,0,0,0-1-.3,1.61,1.61,0,0,0-1,.31,2,2,0,0,0-.67.89A3.54,3.54,0,0,0,22.74,18.6Z"/><path class="cls-2" d="M36.15,19.11H32.24a2.72,2.72,0,0,0,.28,1.2,1.75,1.75,0,0,0,.71.78,1.82,1.82,0,0,0,1,.27,2.29,2.29,0,0,0,.66-.09,1.83,1.83,0,0,0,.57-.26,4.15,4.15,0,0,0,.52-.39c.15-.13.36-.32.6-.55a.66.66,0,0,1,.44-.13.68.68,0,0,1,.5.17.58.58,0,0,1,.19.47,1.3,1.3,0,0,1-.21.63,2.31,2.31,0,0,1-.64.7,3.65,3.65,0,0,1-1.08.55,4.54,4.54,0,0,1-1.49.22,4,4,0,0,1-3-1.1,4,4,0,0,1-1.07-3A5.08,5.08,0,0,1,30.46,17a3.59,3.59,0,0,1,.77-1.3,3.3,3.3,0,0,1,1.25-.83,4.31,4.31,0,0,1,1.64-.29,3.89,3.89,0,0,1,2,.49,3.26,3.26,0,0,1,1.25,1.28,3.33,3.33,0,0,1,.42,1.6c0,.5-.14.83-.43,1A2.86,2.86,0,0,1,36.15,19.11ZM32.24,18h3.63a2.43,2.43,0,0,0-.56-1.53,1.65,1.65,0,0,0-1.26-.51,1.59,1.59,0,0,0-1.23.52A2.55,2.55,0,0,0,32.24,18Z"/><path class="cls-2" d="M45,21.54v-.2a4.93,4.93,0,0,1-.79.75,2.87,2.87,0,0,1-.85.44,3.22,3.22,0,0,1-1,.15,3,3,0,0,1-1.33-.3,3,3,0,0,1-1.06-.87,4,4,0,0,1-.68-1.32A5.82,5.82,0,0,1,39,18.54a4.32,4.32,0,0,1,.92-2.93,3.06,3.06,0,0,1,2.41-1,3.39,3.39,0,0,1,1.46.29,4.12,4.12,0,0,1,1.15.92v-3a1.45,1.45,0,0,1,.25-.93.83.83,0,0,1,.7-.31.89.89,0,0,1,.7.29,1.31,1.31,0,0,1,.24.85v8.82a1.26,1.26,0,0,1-.26.86,1,1,0,0,1-1.36,0A1.22,1.22,0,0,1,45,21.54ZM41,18.6A3.39,3.39,0,0,0,41.28,20a1.94,1.94,0,0,0,.69.86,1.77,1.77,0,0,0,1,.29,1.72,1.72,0,0,0,1-.28,1.83,1.83,0,0,0,.69-.84,3.31,3.31,0,0,0,.26-1.42,3.19,3.19,0,0,0-.26-1.37,2,2,0,0,0-.7-.88,1.71,1.71,0,0,0-1-.3,1.61,1.61,0,0,0-1,.31,2,2,0,0,0-.67.89A3.54,3.54,0,0,0,41,18.6Z"/><path class="cls-2" d="M54.46,12.72v3.06a4.46,4.46,0,0,1,1.15-.9,3,3,0,0,1,1.45-.31A3.24,3.24,0,0,1,58.8,15,3.16,3.16,0,0,1,60,16.41a5.15,5.15,0,0,1,.41,2.13,5.79,5.79,0,0,1-.23,1.66,3.91,3.91,0,0,1-.67,1.32,3,3,0,0,1-1.07.86,3.11,3.11,0,0,1-1.38.3,3,3,0,0,1-.86-.11,2.38,2.38,0,0,1-.7-.29,2.75,2.75,0,0,1-.48-.37,4.49,4.49,0,0,1-.53-.57v.2a1.15,1.15,0,0,1-.28.85.87.87,0,0,1-.68.29.83.83,0,0,1-.68-.29,1.23,1.23,0,0,1-.25-.85V12.81a1.51,1.51,0,0,1,.24-.92.81.81,0,0,1,.69-.31.89.89,0,0,1,.71.3A1.29,1.29,0,0,1,54.46,12.72Zm.09,5.94a2.73,2.73,0,0,0,.55,1.84,1.8,1.8,0,0,0,1.43.64,1.65,1.65,0,0,0,1.3-.66,2.89,2.89,0,0,0,.54-1.88,3.73,3.73,0,0,0-.22-1.36,2,2,0,0,0-.65-.88,1.56,1.56,0,0,0-1-.31,1.73,1.73,0,0,0-1,.31,2.07,2.07,0,0,0-.7.9A3.5,3.5,0,0,0,54.55,18.66Z"/><path class="cls-2" d="M63.63,22.93l.19-.44-2.47-6.2a2.34,2.34,0,0,1-.22-.78.85.85,0,0,1,.13-.47.93.93,0,0,1,.36-.35,1,1,0,0,1,.48-.14.76.76,0,0,1,.65.28,2.36,2.36,0,0,1,.39.78l1.69,4.93L66.44,16a7.23,7.23,0,0,1,.34-.87,1,1,0,0,1,.33-.43.9.9,0,0,1,.48-.11.86.86,0,0,1,.44.12.78.78,0,0,1,.32.33.85.85,0,0,1,.12.43c0,.1,0,.23-.1.4s-.1.34-.16.52L65.6,23.17a7.69,7.69,0,0,1-.66,1.42,2.13,2.13,0,0,1-.85.78,3,3,0,0,1-1.43.28,3.41,3.41,0,0,1-1.32-.19.7.7,0,0,1-.44-.7.68.68,0,0,1,.21-.53.94.94,0,0,1,.62-.19,1.06,1.06,0,0,1,.31.05,1.47,1.47,0,0,0,.33,0,1.23,1.23,0,0,0,.55-.1,1,1,0,0,0,.35-.35A4.43,4.43,0,0,0,63.63,22.93Z"/><path class="cls-2" d="M80.05,12.9v5.62A8.9,8.9,0,0,1,80,19.77a3.75,3.75,0,0,1-.28,1,2.8,2.8,0,0,1-1.21,1.38,4,4,0,0,1-2,.49,4.25,4.25,0,0,1-1.82-.34,2.71,2.71,0,0,1-1.17-1.11,3.7,3.7,0,0,1-.38-.95,3.82,3.82,0,0,1-.15-1,1,1,0,0,1,.29-.78,1,1,0,0,1,.73-.27.81.81,0,0,1,.65.25,1.68,1.68,0,0,1,.34.77,5.47,5.47,0,0,0,.25.9,1.19,1.19,0,0,0,1.25.82c1,0,1.44-.7,1.44-2.11V12.9a1.48,1.48,0,0,1,.29-1,1,1,0,0,1,.79-.33,1,1,0,0,1,.8.33A1.43,1.43,0,0,1,80.05,12.9Z"/><path class="cls-2" d="M89.75,18.62a4.69,4.69,0,0,1-.28,1.65,3.56,3.56,0,0,1-.8,1.29,3.51,3.51,0,0,1-1.26.83,4.33,4.33,0,0,1-1.65.29,4.39,4.39,0,0,1-1.63-.29,3.53,3.53,0,0,1-1.26-.84,3.72,3.72,0,0,1-.81-1.29,5.12,5.12,0,0,1,0-3.31,3.44,3.44,0,0,1,.8-1.28,3.34,3.34,0,0,1,1.26-.83,4.46,4.46,0,0,1,1.63-.29,4.4,4.4,0,0,1,1.65.3,3.51,3.51,0,0,1,1.26.83A3.58,3.58,0,0,1,89.48,17,4.84,4.84,0,0,1,89.75,18.62Zm-2,0a3.08,3.08,0,0,0-.53-1.91A1.77,1.77,0,0,0,85.76,16a1.72,1.72,0,0,0-1,.31,1.9,1.9,0,0,0-.69.89,3.71,3.71,0,0,0-.24,1.39A3.82,3.82,0,0,0,84,20a2,2,0,0,0,.68.89,1.79,1.79,0,0,0,1.05.32,1.75,1.75,0,0,0,1.45-.69A3.05,3.05,0,0,0,87.74,18.62Z"/><path class="cls-2" d="M97.76,20.07a2.3,2.3,0,0,1-1.59,2.31,5.38,5.38,0,0,1-1.92.3,4.65,4.65,0,0,1-1.84-.33,2.76,2.76,0,0,1-1.14-.82,1.68,1.68,0,0,1-.36-1,.81.81,0,0,1,.23-.57.85.85,0,0,1,.6-.23.69.69,0,0,1,.48.15,1.72,1.72,0,0,1,.32.43,1.95,1.95,0,0,0,1.91,1.07,1.67,1.67,0,0,0,1-.27.75.75,0,0,0,.39-.61.85.85,0,0,0-.4-.77,4.86,4.86,0,0,0-1.32-.46,10.44,10.44,0,0,1-1.68-.54,2.92,2.92,0,0,1-1-.74A1.71,1.71,0,0,1,91,16.86a2.09,2.09,0,0,1,.35-1.14,2.53,2.53,0,0,1,1.06-.85,4.11,4.11,0,0,1,1.69-.32,6,6,0,0,1,1.4.16,3.63,3.63,0,0,1,1,.44,2.27,2.27,0,0,1,.63.6,1.2,1.2,0,0,1,.22.64.71.71,0,0,1-.24.56.89.89,0,0,1-.65.23A.77.77,0,0,1,96,17a3.29,3.29,0,0,1-.5-.53,2,2,0,0,0-.53-.47,1.81,1.81,0,0,0-.84-.17,1.59,1.59,0,0,0-.9.23.66.66,0,0,0-.36.57.62.62,0,0,0,.27.52,2.24,2.24,0,0,0,.71.33c.29.09.7.2,1.23.32a7.11,7.11,0,0,1,1.52.55,2.47,2.47,0,0,1,.89.74A1.67,1.67,0,0,1,97.76,20.07Z"/><path class="cls-2" d="M105,19.11h-3.92a2.72,2.72,0,0,0,.28,1.2,1.8,1.8,0,0,0,.71.78,1.85,1.85,0,0,0,1,.27,2.17,2.17,0,0,0,.65-.09,2,2,0,0,0,.58-.26,4.91,4.91,0,0,0,.51-.39c.16-.13.36-.32.61-.55a.64.64,0,0,1,.44-.13.71.71,0,0,1,.5.17.62.62,0,0,1,.19.47,1.22,1.22,0,0,1-.22.63,2.31,2.31,0,0,1-.64.7,3.47,3.47,0,0,1-1.07.55,4.54,4.54,0,0,1-1.49.22,4,4,0,0,1-3-1.1,4.09,4.09,0,0,1-1.07-3A4.82,4.82,0,0,1,99.35,17a3.57,3.57,0,0,1,.76-1.3,3.38,3.38,0,0,1,1.25-.83,4.31,4.31,0,0,1,1.64-.29,3.89,3.89,0,0,1,2,.49,3.29,3.29,0,0,1,1.26,1.28,3.43,3.43,0,0,1,.41,1.6c0,.5-.14.83-.43,1A2.81,2.81,0,0,1,105,19.11ZM101.12,18h3.63a2.43,2.43,0,0,0-.55-1.53,1.66,1.66,0,0,0-1.27-.51,1.58,1.58,0,0,0-1.22.52A2.56,2.56,0,0,0,101.12,18Z"/></g></g><g id="Designed_by_Satodesigners" data-name="Designed by Satodesigners" class="cls-1"><g class="cls-1"><path class="cls-2" d="M135.52,11.76h2.83a7.5,7.5,0,0,1,1.9.21,3.37,3.37,0,0,1,1.44.77,5.44,5.44,0,0,1,1.67,4.36,8.82,8.82,0,0,1-.16,1.77,5.36,5.36,0,0,1-.53,1.44,4.44,4.44,0,0,1-.9,1.14,3.41,3.41,0,0,1-.94.62,4,4,0,0,1-1.1.33,7.74,7.74,0,0,1-1.33.1h-2.84a1.77,1.77,0,0,1-.89-.18.84.84,0,0,1-.39-.5,3.3,3.3,0,0,1-.09-.85V13.1a1.4,1.4,0,0,1,.31-1A1.4,1.4,0,0,1,135.52,11.76Zm.84,1.72v7.29H138c.36,0,.64,0,.85,0a3.21,3.21,0,0,0,.64-.14,1.78,1.78,0,0,0,.57-.33,4,4,0,0,0,1.09-3.18,4.66,4.66,0,0,0-.48-2.38,2.14,2.14,0,0,0-1.18-1,6,6,0,0,0-1.7-.22Z"/><path class="cls-2" d="M150.72,19.11h-3.91a2.59,2.59,0,0,0,.27,1.2,1.86,1.86,0,0,0,1.69,1.05,2.17,2.17,0,0,0,.65-.09A2,2,0,0,0,150,21a4,4,0,0,0,.51-.39c.16-.13.36-.32.61-.55a.64.64,0,0,1,.44-.13.71.71,0,0,1,.5.17.62.62,0,0,1,.19.47,1.3,1.3,0,0,1-.21.63,2.49,2.49,0,0,1-.65.7,3.47,3.47,0,0,1-1.07.55,4.54,4.54,0,0,1-1.49.22,4,4,0,0,1-3-1.1,4.09,4.09,0,0,1-1.07-3A4.82,4.82,0,0,1,145,17a3.57,3.57,0,0,1,.76-1.3,3.38,3.38,0,0,1,1.25-.83,4.31,4.31,0,0,1,1.64-.29,3.89,3.89,0,0,1,2,.49A3.29,3.29,0,0,1,152,16.31a3.33,3.33,0,0,1,.42,1.6,1,1,0,0,1-.44,1A2.81,2.81,0,0,1,150.72,19.11ZM146.81,18h3.62a2.43,2.43,0,0,0-.55-1.53,1.65,1.65,0,0,0-1.26-.51,1.59,1.59,0,0,0-1.23.52A2.49,2.49,0,0,0,146.81,18Z"/><path class="cls-2" d="M160.49,20.07a2.47,2.47,0,0,1-.41,1.42,2.4,2.4,0,0,1-1.19.89,5.35,5.35,0,0,1-1.91.3,4.71,4.71,0,0,1-1.85-.33,2.65,2.65,0,0,1-1.13-.82,1.63,1.63,0,0,1-.37-1,.78.78,0,0,1,.24-.57.81.81,0,0,1,.59-.23.69.69,0,0,1,.48.15,1.73,1.73,0,0,1,.33.43,2.12,2.12,0,0,0,.73.8,2.2,2.2,0,0,0,1.17.27,1.65,1.65,0,0,0,1-.27.75.75,0,0,0,.39-.61.83.83,0,0,0-.4-.77,4.77,4.77,0,0,0-1.31-.46,10.94,10.94,0,0,1-1.69-.54,2.87,2.87,0,0,1-1-.74,1.71,1.71,0,0,1-.39-1.14,2,2,0,0,1,.36-1.14,2.47,2.47,0,0,1,1.06-.85,4.08,4.08,0,0,1,1.69-.32,5.9,5.9,0,0,1,1.39.16,3.51,3.51,0,0,1,1,.44,2,2,0,0,1,.63.6,1.12,1.12,0,0,1,.22.64.74.74,0,0,1-.23.56.91.91,0,0,1-.66.23.78.78,0,0,1-.52-.18,2.9,2.9,0,0,1-.49-.53,2,2,0,0,0-.54-.47,1.74,1.74,0,0,0-.83-.17,1.6,1.6,0,0,0-.91.23.67.67,0,0,0-.35.57.61.61,0,0,0,.26.52,2.24,2.24,0,0,0,.71.33c.3.09.71.2,1.23.32a6.92,6.92,0,0,1,1.52.55,2.47,2.47,0,0,1,.89.74A1.61,1.61,0,0,1,160.49,20.07Z"/><path class="cls-2" d="M163.19,13.62a1,1,0,0,1-.71-.25,1,1,0,0,1,0-1.43,1.05,1.05,0,0,1,.71-.27,1,1,0,0,1,.69.25.87.87,0,0,1,.3.72.92.92,0,0,1-.29.72A1,1,0,0,1,163.19,13.62Zm1,2.07v5.78a1.26,1.26,0,0,1-.29.9,1,1,0,0,1-1.44,0,1.34,1.34,0,0,1-.27-.9V15.75a1.31,1.31,0,0,1,.27-.9,1,1,0,0,1,1.44,0A1.17,1.17,0,0,1,164.18,15.69Z"/><path class="cls-2" d="M173.6,16v5.81a6.15,6.15,0,0,1-.21,1.71,2.81,2.81,0,0,1-.69,1.19,2.85,2.85,0,0,1-1.22.69,6.78,6.78,0,0,1-1.89.23,5.51,5.51,0,0,1-1.84-.29,3.13,3.13,0,0,1-1.26-.75,1.37,1.37,0,0,1-.44-.94.82.82,0,0,1,.25-.6.88.88,0,0,1,.6-.23,1,1,0,0,1,.77.39c.11.13.22.27.34.4a1.8,1.8,0,0,0,.38.35,1.64,1.64,0,0,0,.5.21,3.28,3.28,0,0,0,.67.07,2.67,2.67,0,0,0,1.21-.22,1.25,1.25,0,0,0,.6-.6,2.59,2.59,0,0,0,.2-.83c0-.3,0-.77,0-1.43a3.17,3.17,0,0,1-1.06,1,2.87,2.87,0,0,1-1.44.34,3.06,3.06,0,0,1-1.76-.51,3.26,3.26,0,0,1-1.15-1.44,5.22,5.22,0,0,1-.4-2.13,5.22,5.22,0,0,1,.24-1.63,3.55,3.55,0,0,1,.7-1.22,3,3,0,0,1,1-.75,3.55,3.55,0,0,1,2.78.07,3.54,3.54,0,0,1,1.15,1v-.28a1.17,1.17,0,0,1,.26-.8.85.85,0,0,1,.66-.29.79.79,0,0,1,.77.38A2.57,2.57,0,0,1,173.6,16Zm-5.8,2.53a2.73,2.73,0,0,0,.54,1.84,1.69,1.69,0,0,0,1.37.62,1.88,1.88,0,0,0,.94-.26,1.91,1.91,0,0,0,.72-.81,2.76,2.76,0,0,0,.28-1.31,3,3,0,0,0-.54-1.9,1.7,1.7,0,0,0-1.42-.68,1.65,1.65,0,0,0-1.37.65A2.93,2.93,0,0,0,167.8,18.55Z"/><path class="cls-2" d="M177.44,15.66v.24a3.52,3.52,0,0,1,1.15-1,3.06,3.06,0,0,1,1.44-.33,2.83,2.83,0,0,1,1.41.35,2.13,2.13,0,0,1,.93,1,2.45,2.45,0,0,1,.26.79,8.17,8.17,0,0,1,.06,1.09v3.72a1.26,1.26,0,0,1-.28.9.89.89,0,0,1-.71.31.93.93,0,0,1-.73-.31,1.34,1.34,0,0,1-.27-.9V18.13a3.38,3.38,0,0,0-.28-1.51,1.11,1.11,0,0,0-1.09-.52,1.58,1.58,0,0,0-1,.32,1.78,1.78,0,0,0-.64.87,6.16,6.16,0,0,0-.15,1.67v2.51a1.29,1.29,0,0,1-.28.91,1,1,0,0,1-.73.3.89.89,0,0,1-.71-.31,1.29,1.29,0,0,1-.28-.9V15.69a1.26,1.26,0,0,1,.25-.86.89.89,0,0,1,.68-.28.86.86,0,0,1,.48.13.94.94,0,0,1,.34.37A1.41,1.41,0,0,1,177.44,15.66Z"/><path class="cls-2" d="M190.26,19.11h-3.91a2.72,2.72,0,0,0,.27,1.2,1.86,1.86,0,0,0,1.69,1.05,2.29,2.29,0,0,0,.66-.09,1.83,1.83,0,0,0,.57-.26,4.15,4.15,0,0,0,.52-.39l.6-.55a.66.66,0,0,1,.44-.13.69.69,0,0,1,.5.17.58.58,0,0,1,.19.47,1.3,1.3,0,0,1-.21.63,2.44,2.44,0,0,1-.64.7,3.65,3.65,0,0,1-1.08.55,4.54,4.54,0,0,1-1.49.22,4,4,0,0,1-3-1.1,4,4,0,0,1-1.07-3,4.82,4.82,0,0,1,.26-1.64,3.59,3.59,0,0,1,.77-1.3,3.34,3.34,0,0,1,1.24-.83,4.35,4.35,0,0,1,1.64-.29,3.84,3.84,0,0,1,2,.49,3.29,3.29,0,0,1,1.26,1.28,3.33,3.33,0,0,1,.42,1.6,1,1,0,0,1-.43,1A2.86,2.86,0,0,1,190.26,19.11ZM186.35,18H190a2.38,2.38,0,0,0-.55-1.53,1.65,1.65,0,0,0-1.26-.51,1.59,1.59,0,0,0-1.23.52A2.55,2.55,0,0,0,186.35,18Z"/><path class="cls-2" d="M199.07,21.54v-.2a4.93,4.93,0,0,1-.79.75,2.87,2.87,0,0,1-.85.44,3.22,3.22,0,0,1-1,.15,3,3,0,0,1-1.33-.3,3,3,0,0,1-1.06-.87,4,4,0,0,1-.68-1.32,5.82,5.82,0,0,1-.23-1.65,4.32,4.32,0,0,1,.92-2.93,3.06,3.06,0,0,1,2.41-1,3.31,3.31,0,0,1,1.45.29,4,4,0,0,1,1.16.92v-3a1.45,1.45,0,0,1,.25-.93.82.82,0,0,1,.7-.31.89.89,0,0,1,.7.29,1.31,1.31,0,0,1,.24.85v8.82a1.26,1.26,0,0,1-.26.86,1,1,0,0,1-1.36,0A1.22,1.22,0,0,1,199.07,21.54Zm-3.93-2.94a3.39,3.39,0,0,0,.25,1.39,1.94,1.94,0,0,0,.69.86,1.78,1.78,0,0,0,1.93,0,1.83,1.83,0,0,0,.69-.84A3.31,3.31,0,0,0,199,18.6a3.19,3.19,0,0,0-.26-1.37,2.08,2.08,0,0,0-.7-.88,1.71,1.71,0,0,0-1-.3,1.59,1.59,0,0,0-1,.31,2,2,0,0,0-.67.89A3.54,3.54,0,0,0,195.14,18.6Z"/><path class="cls-2" d="M208.56,12.72v3.06a4.82,4.82,0,0,1,1.15-.9,3,3,0,0,1,1.45-.31,3.25,3.25,0,0,1,1.75.47,3.16,3.16,0,0,1,1.17,1.37,5.15,5.15,0,0,1,.41,2.13,5.79,5.79,0,0,1-.23,1.66,4.1,4.1,0,0,1-.67,1.32,3.06,3.06,0,0,1-1.07.86,3.14,3.14,0,0,1-1.38.3,3.05,3.05,0,0,1-.87-.11,2.43,2.43,0,0,1-.69-.29,3.3,3.3,0,0,1-.49-.37,6.7,6.7,0,0,1-.53-.57v.2a1.19,1.19,0,0,1-.27.85.88.88,0,0,1-.69.29.82.82,0,0,1-.67-.29,1.23,1.23,0,0,1-.26-.85V12.81a1.5,1.5,0,0,1,.25-.92.81.81,0,0,1,.68-.31.86.86,0,0,1,.71.3A1.24,1.24,0,0,1,208.56,12.72Zm.1,5.94a2.73,2.73,0,0,0,.55,1.84,1.8,1.8,0,0,0,1.43.64,1.65,1.65,0,0,0,1.3-.66,2.89,2.89,0,0,0,.54-1.88,3.52,3.52,0,0,0-.23-1.36,2,2,0,0,0-.64-.88,1.56,1.56,0,0,0-1-.31,1.73,1.73,0,0,0-1,.31,2.07,2.07,0,0,0-.7.9A3.33,3.33,0,0,0,208.66,18.66Z"/><path class="cls-2" d="M217.74,22.93l.18-.44-2.46-6.2a2.34,2.34,0,0,1-.22-.78.85.85,0,0,1,.13-.47,1,1,0,0,1,.84-.49.76.76,0,0,1,.65.28,2.36,2.36,0,0,1,.39.78l1.69,4.93L220.55,16a7.23,7.23,0,0,1,.34-.87,1,1,0,0,1,.33-.43.9.9,0,0,1,.48-.11.88.88,0,0,1,.44.12.78.78,0,0,1,.32.33.85.85,0,0,1,.12.43c0,.1-.06.23-.1.4s-.1.34-.16.52l-2.61,6.82a7.69,7.69,0,0,1-.66,1.42,2.13,2.13,0,0,1-.85.78,3.06,3.06,0,0,1-1.43.28,3.41,3.41,0,0,1-1.32-.19.7.7,0,0,1-.44-.7.68.68,0,0,1,.21-.53.92.92,0,0,1,.62-.19,1.12,1.12,0,0,1,.31.05,1.47,1.47,0,0,0,.33,0A1.16,1.16,0,0,0,217,24a1,1,0,0,0,.36-.35A6.81,6.81,0,0,0,217.74,22.93Z"/><path class="cls-2" d="M236.07,19.28a3.11,3.11,0,0,1-.5,1.75,3.24,3.24,0,0,1-1.47,1.21,5.38,5.38,0,0,1-2.29.44,5.16,5.16,0,0,1-2.62-.6A3.45,3.45,0,0,1,228,20.93a2.58,2.58,0,0,1-.46-1.4,1,1,0,0,1,1-1,.83.83,0,0,1,.59.22,1.61,1.61,0,0,1,.4.65,4.17,4.17,0,0,0,.45.85,1.71,1.71,0,0,0,.67.57,2.44,2.44,0,0,0,1.13.23,2.54,2.54,0,0,0,1.57-.45,1.35,1.35,0,0,0,.61-1.13,1.21,1.21,0,0,0-.33-.87,2.2,2.2,0,0,0-.84-.51c-.34-.11-.8-.24-1.38-.37a10.29,10.29,0,0,1-1.94-.63,3.14,3.14,0,0,1-1.24-1,2.62,2.62,0,0,1-.45-1.56,2.68,2.68,0,0,1,.48-1.57,3.06,3.06,0,0,1,1.4-1.06,5.66,5.66,0,0,1,2.15-.37,5.43,5.43,0,0,1,1.71.24,3.82,3.82,0,0,1,1.2.66,2.54,2.54,0,0,1,.69.85,1.93,1.93,0,0,1,.22.87,1,1,0,0,1-.27.7.86.86,0,0,1-.68.31.81.81,0,0,1-.57-.18,2.52,2.52,0,0,1-.42-.62,2.71,2.71,0,0,0-.71-.94,2,2,0,0,0-1.32-.35,2.3,2.3,0,0,0-1.35.37,1.08,1.08,0,0,0-.52.89.89.89,0,0,0,.18.56,1.29,1.29,0,0,0,.48.4,3.07,3.07,0,0,0,.62.27l1,.28a13.74,13.74,0,0,1,1.65.47A4.86,4.86,0,0,1,235,17a2.53,2.53,0,0,1,.8.92A2.93,2.93,0,0,1,236.07,19.28Z"/><path class="cls-2" d="M242.83,21.55a6.1,6.1,0,0,1-1.4.85,3.88,3.88,0,0,1-1.52.28,2.92,2.92,0,0,1-1.35-.3,2.19,2.19,0,0,1-.9-.83,2.1,2.1,0,0,1-.31-1.12,2,2,0,0,1,.52-1.4,2.53,2.53,0,0,1,1.43-.78l.94-.2c.5-.1.93-.19,1.29-.28s.75-.19,1.17-.31a2,2,0,0,0-.32-1.16c-.18-.25-.57-.37-1.17-.37a2.46,2.46,0,0,0-1.14.21,1.83,1.83,0,0,0-.66.64,5.54,5.54,0,0,1-.39.56.63.63,0,0,1-.49.14.89.89,0,0,1-.58-.22.72.72,0,0,1-.24-.55,1.69,1.69,0,0,1,.37-1,2.74,2.74,0,0,1,1.17-.82,5.29,5.29,0,0,1,2-.32,5.56,5.56,0,0,1,2.08.31,1.93,1.93,0,0,1,1.06,1,4.28,4.28,0,0,1,.32,1.79c0,.47,0,.87,0,1.2s0,.69,0,1.09a3.86,3.86,0,0,0,.19,1.17,3.83,3.83,0,0,1,.18.79.72.72,0,0,1-.29.56,1,1,0,0,1-.65.25.85.85,0,0,1-.61-.29A4.32,4.32,0,0,1,242.83,21.55Zm-.13-2.89a9.59,9.59,0,0,1-1.28.34c-.56.12-.94.21-1.16.27a1.41,1.41,0,0,0-.61.33.83.83,0,0,0-.3.68,1,1,0,0,0,.35.77,1.24,1.24,0,0,0,.9.32,2.34,2.34,0,0,0,1.09-.26,1.68,1.68,0,0,0,.74-.67A3.05,3.05,0,0,0,242.7,19Z"/><path class="cls-2" d="M246.43,14.73h.22v-1.2c0-.33,0-.58,0-.76a1.13,1.13,0,0,1,.15-.47.92.92,0,0,1,.34-.34,1,1,0,0,1,1.17.16.79.79,0,0,1,.26.47,3.83,3.83,0,0,1,.06.78v1.36h.73a1,1,0,0,1,.65.2.66.66,0,0,1,.22.52.56.56,0,0,1-.32.56,2,2,0,0,1-.91.16h-.37v3.68a6.57,6.57,0,0,0,0,.72.7.7,0,0,0,.18.41.61.61,0,0,0,.46.16,2,2,0,0,0,.48-.07,2.59,2.59,0,0,1,.47-.06.6.6,0,0,1,.43.2.66.66,0,0,1,.2.48.81.81,0,0,1-.53.74,3.6,3.6,0,0,1-1.52.25,2.65,2.65,0,0,1-1.42-.31,1.46,1.46,0,0,1-.63-.87,5.94,5.94,0,0,1-.15-1.49V16.17h-.26a1,1,0,0,1-.66-.2.68.68,0,0,1-.23-.52.64.64,0,0,1,.24-.52A1.07,1.07,0,0,1,246.43,14.73Z"/><path class="cls-2" d="M259.12,18.62a4.93,4.93,0,0,1-.28,1.65,3.72,3.72,0,0,1-.81,1.29,3.51,3.51,0,0,1-1.26.83,4.33,4.33,0,0,1-1.65.29,4.42,4.42,0,0,1-1.63-.29,3.71,3.71,0,0,1-1.26-.84,3.56,3.56,0,0,1-.8-1.29,4.74,4.74,0,0,1-.28-1.64,5,5,0,0,1,.28-1.67,3.57,3.57,0,0,1,.8-1.28,3.51,3.51,0,0,1,1.26-.83,4.5,4.5,0,0,1,1.63-.29,4.33,4.33,0,0,1,1.65.3A3.5,3.5,0,0,1,258.84,17,4.84,4.84,0,0,1,259.12,18.62Zm-2,0a3,3,0,0,0-.54-1.91,1.76,1.76,0,0,0-1.45-.68,1.74,1.74,0,0,0-1,.31,1.9,1.9,0,0,0-.69.89,3.71,3.71,0,0,0-.24,1.39A3.61,3.61,0,0,0,253.4,20a1.88,1.88,0,0,0,.68.89,1.86,1.86,0,0,0,2.49-.37A3,3,0,0,0,257.11,18.62Z"/><path class="cls-2" d="M266.17,21.54v-.2a5,5,0,0,1-.8.75,2.75,2.75,0,0,1-.85.44,3.13,3.13,0,0,1-1,.15,3,3,0,0,1-2.38-1.17,3.84,3.84,0,0,1-.68-1.32,5.82,5.82,0,0,1-.23-1.65,4.32,4.32,0,0,1,.91-2.93,3.07,3.07,0,0,1,2.41-1,3.33,3.33,0,0,1,1.46.29,4.15,4.15,0,0,1,1.16.92v-3a1.52,1.52,0,0,1,.24-.93.84.84,0,0,1,.7-.31.86.86,0,0,1,.7.29,1.25,1.25,0,0,1,.25.85v8.82a1.22,1.22,0,0,1-.27.86.94.94,0,0,1-1.35,0A1.22,1.22,0,0,1,266.17,21.54Zm-3.93-2.94a3.39,3.39,0,0,0,.25,1.39,1.94,1.94,0,0,0,.69.86,1.76,1.76,0,0,0,1.92,0,1.91,1.91,0,0,0,.7-.84,3.46,3.46,0,0,0,.26-1.42,3.35,3.35,0,0,0-.26-1.37,2.16,2.16,0,0,0-.7-.88,1.72,1.72,0,0,0-1-.3,1.63,1.63,0,0,0-1,.31,2.06,2.06,0,0,0-.67.89A3.54,3.54,0,0,0,262.24,18.6Z"/><path class="cls-2" d="M275.65,19.11h-3.91a2.59,2.59,0,0,0,.27,1.2,1.8,1.8,0,0,0,.71.78,1.85,1.85,0,0,0,1,.27,2.17,2.17,0,0,0,.65-.09,2,2,0,0,0,.58-.26,4,4,0,0,0,.51-.39c.16-.13.36-.32.61-.55a.64.64,0,0,1,.44-.13.71.71,0,0,1,.5.17.62.62,0,0,1,.19.47,1.22,1.22,0,0,1-.22.63,2.31,2.31,0,0,1-.64.7,3.47,3.47,0,0,1-1.07.55,4.58,4.58,0,0,1-1.49.22,4,4,0,0,1-3-1.1,4.09,4.09,0,0,1-1.07-3A4.82,4.82,0,0,1,270,17a3.57,3.57,0,0,1,.76-1.3,3.38,3.38,0,0,1,1.25-.83,4.31,4.31,0,0,1,1.64-.29,3.89,3.89,0,0,1,2,.49,3.31,3.31,0,0,1,1.67,2.88c0,.5-.14.83-.43,1A2.81,2.81,0,0,1,275.65,19.11ZM271.74,18h3.62a2.43,2.43,0,0,0-.55-1.53,1.66,1.66,0,0,0-1.27-.51,1.58,1.58,0,0,0-1.22.52A2.49,2.49,0,0,0,271.74,18Z"/><path class="cls-2" d="M285.42,20.07a2.47,2.47,0,0,1-.41,1.42,2.4,2.4,0,0,1-1.19.89,5.35,5.35,0,0,1-1.91.3,4.71,4.71,0,0,1-1.85-.33,2.65,2.65,0,0,1-1.13-.82,1.63,1.63,0,0,1-.37-1,.78.78,0,0,1,.24-.57.81.81,0,0,1,.59-.23.69.69,0,0,1,.48.15,1.72,1.72,0,0,1,.32.43,1.95,1.95,0,0,0,1.91,1.07,1.65,1.65,0,0,0,1-.27.75.75,0,0,0,.39-.61.85.85,0,0,0-.4-.77,4.74,4.74,0,0,0-1.32-.46,11.14,11.14,0,0,1-1.68-.54,2.87,2.87,0,0,1-1-.74,1.71,1.71,0,0,1-.39-1.14,2,2,0,0,1,.36-1.14,2.47,2.47,0,0,1,1.06-.85,4.06,4.06,0,0,1,1.68-.32,5.92,5.92,0,0,1,1.4.16,3.51,3.51,0,0,1,1,.44,2,2,0,0,1,.63.6,1.12,1.12,0,0,1,.22.64.74.74,0,0,1-.23.56.91.91,0,0,1-.66.23.78.78,0,0,1-.52-.18,3.29,3.29,0,0,1-.5-.53,2,2,0,0,0-.53-.47,1.78,1.78,0,0,0-.84-.17,1.59,1.59,0,0,0-.9.23.65.65,0,0,0-.35.57.61.61,0,0,0,.26.52,2.24,2.24,0,0,0,.71.33c.3.09.71.2,1.23.32a6.92,6.92,0,0,1,1.52.55,2.47,2.47,0,0,1,.89.74A1.61,1.61,0,0,1,285.42,20.07Z"/><path class="cls-2" d="M288.12,13.62a1,1,0,0,1-.71-.25,1,1,0,0,1,0-1.43,1.05,1.05,0,0,1,.71-.27,1,1,0,0,1,.69.25.87.87,0,0,1,.3.72.92.92,0,0,1-.29.72A1,1,0,0,1,288.12,13.62Zm1,2.07v5.78a1.26,1.26,0,0,1-.29.9.92.92,0,0,1-.72.31.91.91,0,0,1-.72-.31,1.34,1.34,0,0,1-.27-.9V15.75a1.31,1.31,0,0,1,.27-.9.94.94,0,0,1,.72-.3,1,1,0,0,1,.72.3A1.17,1.17,0,0,1,289.11,15.69Z"/><path class="cls-2" d="M298.53,16v5.81a5.77,5.77,0,0,1-.22,1.71,2.7,2.7,0,0,1-.68,1.19,2.85,2.85,0,0,1-1.22.69,6.78,6.78,0,0,1-1.89.23,5.61,5.61,0,0,1-1.85-.29,3.15,3.15,0,0,1-1.25-.75,1.37,1.37,0,0,1-.44-.94.82.82,0,0,1,.25-.6.88.88,0,0,1,.6-.23,1,1,0,0,1,.77.39l.33.4a2.13,2.13,0,0,0,.39.35,1.64,1.64,0,0,0,.5.21,3.28,3.28,0,0,0,.67.07A2.67,2.67,0,0,0,295.7,24a1.25,1.25,0,0,0,.6-.6,2.59,2.59,0,0,0,.2-.83c0-.3,0-.77,0-1.43a3.26,3.26,0,0,1-1.06,1,2.89,2.89,0,0,1-1.44.34,3.06,3.06,0,0,1-1.76-.51,3.26,3.26,0,0,1-1.15-1.44,5.22,5.22,0,0,1-.4-2.13,5.22,5.22,0,0,1,.24-1.63,3.55,3.55,0,0,1,.7-1.22,3,3,0,0,1,1.05-.75,3.55,3.55,0,0,1,2.78.07,3.54,3.54,0,0,1,1.15,1v-.28a1.17,1.17,0,0,1,.26-.8.85.85,0,0,1,.66-.29.79.79,0,0,1,.77.38A2.57,2.57,0,0,1,298.53,16Zm-5.8,2.53a2.79,2.79,0,0,0,.53,1.84,1.73,1.73,0,0,0,1.38.62,1.88,1.88,0,0,0,.94-.26,2,2,0,0,0,.72-.81,2.76,2.76,0,0,0,.28-1.31,3,3,0,0,0-.54-1.9,1.7,1.7,0,0,0-1.42-.68,1.64,1.64,0,0,0-1.37.65A2.93,2.93,0,0,0,292.73,18.55Z"/><path class="cls-2" d="M302.37,15.66v.24a3.52,3.52,0,0,1,1.15-1,3.06,3.06,0,0,1,1.44-.33,2.83,2.83,0,0,1,1.41.35,2.13,2.13,0,0,1,.93,1,2.45,2.45,0,0,1,.26.79,8.17,8.17,0,0,1,.06,1.09v3.72a1.31,1.31,0,0,1-.28.9.89.89,0,0,1-.71.31.93.93,0,0,1-.73-.31,1.35,1.35,0,0,1-.28-.9V18.13a3.4,3.4,0,0,0-.27-1.51,1.12,1.12,0,0,0-1.1-.52,1.57,1.57,0,0,0-1,.32,1.78,1.78,0,0,0-.64.87,6.16,6.16,0,0,0-.15,1.67v2.51a1.29,1.29,0,0,1-.28.91,1,1,0,0,1-.73.3.89.89,0,0,1-.71-.31,1.29,1.29,0,0,1-.28-.9V15.69a1.26,1.26,0,0,1,.25-.86,1,1,0,0,1,1.16-.15.94.94,0,0,1,.34.37A1.41,1.41,0,0,1,302.37,15.66Z"/><path class="cls-2" d="M315.19,19.11h-3.91a2.72,2.72,0,0,0,.27,1.2,1.86,1.86,0,0,0,1.69,1.05,2.29,2.29,0,0,0,.66-.09,1.94,1.94,0,0,0,.57-.26,3.42,3.42,0,0,0,.51-.39c.16-.13.36-.32.61-.55a.66.66,0,0,1,.44-.13.69.69,0,0,1,.5.17.58.58,0,0,1,.19.47,1.3,1.3,0,0,1-.21.63,2.44,2.44,0,0,1-.64.7,3.65,3.65,0,0,1-1.08.55,4.54,4.54,0,0,1-1.49.22,4,4,0,0,1-3-1.1,4.08,4.08,0,0,1-1.06-3A4.82,4.82,0,0,1,309.5,17a3.46,3.46,0,0,1,.77-1.3,3.27,3.27,0,0,1,1.24-.83,4.35,4.35,0,0,1,1.64-.29,3.89,3.89,0,0,1,2,.49,3.29,3.29,0,0,1,1.26,1.28,3.33,3.33,0,0,1,.42,1.6,1,1,0,0,1-.43,1A2.86,2.86,0,0,1,315.19,19.11ZM311.28,18h3.62a2.38,2.38,0,0,0-.55-1.53,1.65,1.65,0,0,0-1.26-.51,1.59,1.59,0,0,0-1.23.52A2.55,2.55,0,0,0,311.28,18Z"/><path class="cls-2" d="M320.51,19.8v1.67a1.29,1.29,0,0,1-.29.91,1,1,0,0,1-.72.3.89.89,0,0,1-.71-.31,1.26,1.26,0,0,1-.28-.9V15.9c0-.9.32-1.35,1-1.35a.83.83,0,0,1,.72.32,1.67,1.67,0,0,1,.24.93,3.55,3.55,0,0,1,.74-.93,1.5,1.5,0,0,1,1-.32,2.62,2.62,0,0,1,1.23.32,1,1,0,0,1,.59.83.79.79,0,0,1-.25.61.77.77,0,0,1-.55.23,2.41,2.41,0,0,1-.53-.13,2.5,2.5,0,0,0-.74-.14,1.11,1.11,0,0,0-.72.23,1.49,1.49,0,0,0-.43.69,4.4,4.4,0,0,0-.21,1.08Q320.51,18.9,320.51,19.8Z"/><path class="cls-2" d="M331.16,20.07a2.47,2.47,0,0,1-.41,1.42,2.4,2.4,0,0,1-1.19.89,5.35,5.35,0,0,1-1.91.3,4.71,4.71,0,0,1-1.85-.33,2.65,2.65,0,0,1-1.13-.82,1.63,1.63,0,0,1-.37-1,.78.78,0,0,1,.24-.57.81.81,0,0,1,.59-.23.69.69,0,0,1,.48.15,1.72,1.72,0,0,1,.32.43,2.14,2.14,0,0,0,.74.8,2.2,2.2,0,0,0,1.17.27,1.65,1.65,0,0,0,1-.27.75.75,0,0,0,.39-.61.83.83,0,0,0-.4-.77,4.86,4.86,0,0,0-1.32-.46,11.14,11.14,0,0,1-1.68-.54,2.87,2.87,0,0,1-1-.74,1.71,1.71,0,0,1-.39-1.14,2,2,0,0,1,.36-1.14,2.47,2.47,0,0,1,1.06-.85,4,4,0,0,1,1.68-.32,5.92,5.92,0,0,1,1.4.16,3.51,3.51,0,0,1,1,.44,2,2,0,0,1,.63.6,1.12,1.12,0,0,1,.22.64.74.74,0,0,1-.23.56.91.91,0,0,1-.66.23.78.78,0,0,1-.52-.18,3.29,3.29,0,0,1-.5-.53,2,2,0,0,0-.53-.47,1.78,1.78,0,0,0-.84-.17,1.59,1.59,0,0,0-.9.23.66.66,0,0,0-.36.57.62.62,0,0,0,.27.52,2.24,2.24,0,0,0,.71.33c.3.09.71.2,1.23.32a6.92,6.92,0,0,1,1.52.55,2.47,2.47,0,0,1,.89.74A1.68,1.68,0,0,1,331.16,20.07Z"/></g></g><line id="Line_1" data-name="Line 1" class="cls-3" x1="120.5" x2="120.5" y2="34"/></g></svg>