<svg id="Layer_1" data-name="Layer 1" xmlns="http://www.w3.org/2000/svg" viewBox="0 0 285.05 164.9"><defs><style>.cls-1{fill:#64e8c4;}.cls-2{isolation:isolate;}.cls-3{fill:#18a487;}</style></defs><title>Generate</title><path id="Path_534" data-name="Path 534" class="cls-1" d="M145,0C77.06,0,0,6.43,0,81.56c0,80.85,87.56,83.34,146.94,83.34s138.11-7.73,138.11-81.48S213,0,145,0Z"/><g id="Generate" class="cls-2"><g class="cls-2"><path class="cls-3" d="M89.36,86.65H88.15V96h-4l-.5-2.58a8.41,8.41,0,0,1-2.91,2.14,9.71,9.71,0,0,1-4.16.82,10.25,10.25,0,0,1-8.26-3.61,13.34,13.34,0,0,1-3.06-8.93,13.57,13.57,0,0,1,3.23-9.12q3.22-3.8,9.5-3.8a16.19,16.19,0,0,1,5.45.87,9.88,9.88,0,0,1,3.67,2.09l.68,5.36-4.1.38-.69-2.89a7.34,7.34,0,0,0-2.48-1,12.48,12.48,0,0,0-2.76-.35,6.71,6.71,0,0,0-5,2.06c-1.33,1.36-2,3.47-2,6.3s.63,4.78,1.88,6.12a6.39,6.39,0,0,0,4.88,2,5.8,5.8,0,0,0,4-1.33A4.83,4.83,0,0,0,83,86.8v-.15H78.19V82.36H89.36Z"/><path class="cls-3" d="M108.25,90.6a5.85,5.85,0,0,1-2.24,4,8.56,8.56,0,0,1-5.74,1.75,9.27,9.27,0,0,1-6.33-2.17q-2.49-2.16-2.49-6.46a9.82,9.82,0,0,1,2.26-6.59A7.89,7.89,0,0,1,100,78.52a8.22,8.22,0,0,1,5.8,2A7.15,7.15,0,0,1,108.1,86a11.4,11.4,0,0,1-.27,2.47H96.58q.42,4.07,4,4.06a3.14,3.14,0,0,0,2.68-1,4.38,4.38,0,0,0,.85-1.71Zm-5.21-5a3.69,3.69,0,0,0-.55-2.43A2.64,2.64,0,0,0,100,82a3,3,0,0,0-2.36,1,5,5,0,0,0-1.06,2.59Z"/><path class="cls-3" d="M131.47,96H122V92.31h2.28v-6a5.19,5.19,0,0,0-.74-3.16,2.6,2.6,0,0,0-2.18-1,3.4,3.4,0,0,0-2.7,1.09,4.31,4.31,0,0,0-1,2.83v6.15H120V96h-9.46V92.31h2.28V82.59H110.3V78.86h7.37v2.62a5.89,5.89,0,0,1,5.51-3A6.52,6.52,0,0,1,127.4,80a5.45,5.45,0,0,1,1.79,4.49v7.86h2.28Z"/><path class="cls-3" d="M149.9,90.6a5.87,5.87,0,0,1-2.25,4,8.53,8.53,0,0,1-5.73,1.75,9.27,9.27,0,0,1-6.33-2.17q-2.49-2.16-2.49-6.46a9.77,9.77,0,0,1,2.26-6.59,7.89,7.89,0,0,1,6.33-2.64,8.18,8.18,0,0,1,5.79,2,7.11,7.11,0,0,1,2.26,5.4,12,12,0,0,1-.26,2.47H138.23q.42,4.07,4,4.06a3.15,3.15,0,0,0,2.68-1,4.38,4.38,0,0,0,.85-1.71Zm-5.21-5a3.69,3.69,0,0,0-.55-2.43A2.65,2.65,0,0,0,141.69,82a2.94,2.94,0,0,0-2.36,1,5,5,0,0,0-1.06,2.59Z"/><path class="cls-3" d="M163,78.63a7.05,7.05,0,0,1,1.61.21,6.12,6.12,0,0,1,1.77.74l.76,6-3.73.42-.64-2.93a2.75,2.75,0,0,0-1.33-.46,2,2,0,0,0-1.46.65,2.61,2.61,0,0,0-.63,1.9v7.14h3V96H152.14V92.31h2.28V82.59H152V78.86h7v3.27a6,6,0,0,1,1.35-2.49A3.47,3.47,0,0,1,163,78.63Z"/><path class="cls-3" d="M170.76,80.08a23.7,23.7,0,0,1,3.74-1.24,17.7,17.7,0,0,1,3.59-.32A8,8,0,0,1,182.88,80a5,5,0,0,1,2,4.37v7.45c0,.89.4,1.33,1.18,1.33a2.68,2.68,0,0,0,.72-.11l0,2.58a6.43,6.43,0,0,1-3.08.8A3.39,3.39,0,0,1,180,93v0a8,8,0,0,1-2.07,2.36,5.39,5.39,0,0,1-3.44,1.06,6.53,6.53,0,0,1-3.57-1.1,4.17,4.17,0,0,1-1.71-3.8,4,4,0,0,1,2.53-4.18,14.21,14.21,0,0,1,5.45-1,22.55,22.55,0,0,1,2.81.15v-.57a9.35,9.35,0,0,0-.36-2.58c-.24-.84-1.06-1.25-2.45-1.25a9.84,9.84,0,0,0-1.39.09,4,4,0,0,0-1.23.4l-.65,2.43L170,84.52ZM180,89v-.23l-1.23-.15a10.46,10.46,0,0,0-1.24-.08,5.16,5.16,0,0,0-2.28.48,1.87,1.87,0,0,0-1,1.88,2.13,2.13,0,0,0,.46,1.4,1.88,1.88,0,0,0,1.56.57,3.71,3.71,0,0,0,2.41-.93A4.15,4.15,0,0,0,180,89Z"/><path class="cls-3" d="M203.21,90.68A6.38,6.38,0,0,1,201.16,95a6.65,6.65,0,0,1-4.34,1.37A7.11,7.11,0,0,1,192.21,95a5,5,0,0,1-1.77-4.09V82.36H188v-3.5h2.43v-5.2h4.9v5.2h6.16v3.5h-6.16V90c0,1.5.69,2.25,2,2.25a3,3,0,0,0,1.24-.4c.52-.27.85-1,1-2.3Z"/><path class="cls-3" d="M220.88,90.6a5.89,5.89,0,0,1-2.24,4,8.56,8.56,0,0,1-5.74,1.75,9.27,9.27,0,0,1-6.33-2.17q-2.49-2.16-2.49-6.46a9.82,9.82,0,0,1,2.26-6.59,7.89,7.89,0,0,1,6.33-2.64,8.22,8.22,0,0,1,5.8,2,7.15,7.15,0,0,1,2.26,5.4,11.4,11.4,0,0,1-.27,2.47H209.21q.42,4.07,4,4.06a3.14,3.14,0,0,0,2.68-1,4.56,4.56,0,0,0,.86-1.71Zm-5.21-5a3.69,3.69,0,0,0-.55-2.43A2.64,2.64,0,0,0,212.67,82a3,3,0,0,0-2.36,1,5,5,0,0,0-1.06,2.59Z"/></g></g></svg>